<svg version="1" xmlns="http://www.w3.org/2000/svg" width="170.667" height="170.667" viewBox="0 0 128.000000 128.000000"><path d="M49.2 33.5c-1.9.8-3.6 2.4-3.9 3.4-.3 1.2-2 2.5-4 3.2-4 1.3-7.3 6-7.3 10.3 0 1.8-.9 3.5-2.5 4.8-2.9 2.2-5.5 6.8-5.5 9.5 0 1 .7 3.1 1.5 4.7.8 1.5 1.5 4.5 1.5 6.6 0 5.5 3.6 10.2 9.1 12 2.6.9 5.8 2.9 7.2 4.5 3.5 4.1 9.5 4.2 13.4.2l2.8-2.7.3-24.7c.3-26.9-.1-29.3-4.9-31.8-3.4-1.8-3.5-1.8-7.7 0zm7.6 3.7c.7.7 1.2 2.4 1.2 3.9 0 2.2-.4 2.6-1.9 2.2-1.1-.3-3.4.2-5.2 1.1-1.8.9-4.2 1.6-5.5 1.6-3.6 0-3.9 1.9-.5 3.1 1.7.6 3.1 1.5 3.1 2s.7.9 1.6.9c1 0 1.4-.7 1.2-2.2-.2-1.6.3-2.4 2.2-2.8 5-1.3 5-1.2 5 21 0 17.6-.2 21.1-1.6 22.4-2.5 2.5-9.4 1.8-9.4-.9 0-.7-.7-1.8-1.5-2.5S44 84.2 44 82.4c0-4.2-1.8-4.4-3.3-.4-1.4 3.6-2.3 3.7-5.4.8-1.9-1.8-2.3-3.2-2.3-8.4 0-5 .4-6.5 1.8-7.3 2.7-1.5.1-3.7-2.7-2.2-1.9 1.1-2.1.9-2.1-1.4 0-2.5 2-5 5.5-7 1.2-.7 1.8-2.5 2-5.3.3-5 2.4-7.7 6.6-8.6 1.6-.3 3.2-1.4 3.6-2.3.3-1 1-2.4 1.6-3.1 1.2-1.5 5.9-1.6 7.5 0z"/><path d="M47 67.1c0 1.7.5 4 1.2 5.2.6 1.2 1.1 3.7.9 5.4-.2 2.5.2 3.3 1.3 3.3 1 0 1.6-.9 1.6-2.5 0-1.4.9-3.3 2-4.2 2.7-2.4 2.5-3.6-.5-3.1-2.1.4-2.6.1-3.1-2.1-.9-4.4-1.3-5.1-2.4-5.1-.5 0-1 1.4-1 3.1z"/></svg>